<svg xmlns="http://www.w3.org/2000/svg" xmlns:xlink="http://www.w3.org/1999/xlink" width="232.468" height="37.083" viewBox="0 0 232.468 37.083">
  <defs>
    <clipPath id="clip-path">
      <rect id="사각형_444" data-name="사각형 444" width="60" height="37.083" fill="none"/>
    </clipPath>
  </defs>
  <g id="그룹_474" data-name="그룹 474" transform="translate(-99 3300.508)" opacity="0.6">
    <path id="패스_15310" data-name="패스 15310" d="M18.586-19.009H3.151v2.486H15.469a26.451,26.451,0,0,1-.475,5.179H.665v2.495H9.219v3.185H2.7V-3.22H15.469V2.253h3.125V-5.663h-6.25V-8.848h8.641v-2.495H18.128a29.231,29.231,0,0,0,.458-5.913Zm20.469-.975H35.938V2.2h3.116V-8.891H42.2v-2.572H39.055ZM21.289-4.023,23.041-1.64c7.467-3.669,10.065-9.418,10.083-16.065H22.541v2.547h7.407C29.36-10.2,26.538-6.664,21.289-4.023ZM62.666-9.211H54.076v-1.977h6.405v-2.5H47.965v-2.935h12.3v-2.452H44.848v7.89h6.1v1.977H42.4v2.478H62.666ZM44.641-2.745H57.176V2.314h3.073V-5.2H44.641ZM71.654-16.954v-1.865H68.511v2.011A7.423,7.423,0,0,1,63.047-9.5L64.7-7.01a8.826,8.826,0,0,0,5.447-5.033,8.16,8.16,0,0,0,4.938,4.351l1.657-2.434A6.784,6.784,0,0,1,71.654-16.954Zm-4.895,14.9c-.009,2.745,2.9,4.308,7.631,4.3,4.748.009,7.648-1.554,7.657-4.3-.009-2.728-2.909-4.325-7.657-4.325C69.659-6.379,66.75-4.782,66.759-2.055Zm3.1,0c-.009-1.269,1.588-1.908,4.532-1.908s4.558.639,4.567,1.908C78.948-.82,77.342-.173,74.39-.181,71.446-.173,69.849-.82,69.858-2.055Zm4.851-11.3h4.169v6.405h3.108V-19.984H78.879V-15.9H74.709Zm28.143-6.63H99.745v5.421h-3.47v2.538h3.47v5.249h3.108ZM83.982-9.237,85.6-6.768a8.814,8.814,0,0,0,5.378-4.981,8.467,8.467,0,0,0,5.11,4.4L97.621-9.8a6.874,6.874,0,0,1-5.11-6.328h4.428v-2.5H84.888v2.5h4.454A7.4,7.4,0,0,1,83.982-9.237ZM87.625-2c-.009,2.693,2.9,4.273,7.631,4.282C100,2.27,102.9.691,102.913-2,102.9-4.7,100-6.284,95.256-6.284,90.525-6.284,87.616-4.7,87.625-2Zm3.1,0c-.009-1.278,1.588-1.916,4.532-1.916S99.814-3.28,99.823-2C99.814-.734,98.208-.095,95.256-.1,92.312-.095,90.715-.734,90.724-2ZM112-14.9v-.112h3.41v-2.434H112v-2.3h-2.944v2.3H105.6v2.434h3.453v.112a6,6,0,0,1-4.066,5.732l1.424,2.3a7.223,7.223,0,0,0,4.169-3.919,7.028,7.028,0,0,0,4.092,3.557l1.407-2.339A5.513,5.513,0,0,1,112-14.9ZM108.724-2.918h12.258V2.253h3.1V-5.421H108.724Zm7.683-3.513h2.944V-11.87h1.778v5.508h2.952V-19.95h-2.952v5.577h-1.778V-19.6h-2.944Zm28.54-13.553h-2.952V-3.341h2.952ZM125.585-8.589,127.3-6.233a8.169,8.169,0,0,0,4.075-4.454,7.418,7.418,0,0,0,3.712,3.928l1.718-2.4a6.708,6.708,0,0,1-3.945-6.431v-2.9H129.84v2.9A7.585,7.585,0,0,1,125.585-8.589Zm4.308,10.454h15.625V-.647H133V-5.3h-3.108Zm4.895-14.209h2.719V-4h2.944V-19.63h-2.944v4.748h-2.719Zm30.681-7.64h-3.082v7.864h-3.9v2.495h3.9V2.3h3.082ZM147.737-2.736h1.77a64.226,64.226,0,0,0,9.962-.613l-.311-2.495a54.178,54.178,0,0,1-8.3.57v-4.2h6.466v-2.443h-6.466V-15.6h7.277v-2.512H147.737Z" transform="translate(166 -3267)" fill="#fff"/>
    <g id="그룹_473" data-name="그룹 473" transform="translate(99 -3300.508)">
      <g id="그룹_445" data-name="그룹 445" clip-path="url(#clip-path)">
        <path id="패스_136" data-name="패스 136" d="M27.185,76.012V57.451c-2.594,0-5.021-.028-7.445.031a1.69,1.69,0,0,0-1.01.682c-1.327,1.635-2.611,3.3-3.959,5.026l9.89,12.749c-.442.049-.731.108-1.022.109-2.67.007-5.34-.015-8.01.017a1.634,1.634,0,0,1-1.563-.812c-1.781-2.635-3.626-5.226-5.455-7.828-.218-.31-.478-.591-.931-1.144,0,1.918-.044,3.527.008,5.132.141,4.351-.375,4.787-4.719,4.644-.946-.031-1.894,0-2.911,0C.036,75.543,0,75.156,0,74.769Q0,64.445,0,54.121c0-1.981.832-2.8,2.843-2.8,1.548,0,3.1,0,4.794,0v8.57L7.922,60c.318-.416.643-.826.951-1.249,1.382-1.9,2.755-3.8,4.137-5.693a4.038,4.038,0,0,1,3.468-1.75q21.221.019,42.442.01c.311,0,.623.029,1.055.051,0,1.513.068,2.976-.024,4.428a2.061,2.061,0,0,1-2.273,1.678c-2.025.015-4.05,0-6.24,0v1.376q0,7.1,0,14.2c0,2.248-.764,2.989-3.022,2.992-1.506,0-3.011,0-4.663,0v-18.5H35.3v1.328q0,7.1,0,14.2c0,2.2-.737,2.918-2.957,2.924-1.664,0-3.328,0-5.157,0" transform="translate(0 -38.996)" fill="#fff"/>
        <path id="패스_137" data-name="패스 137" d="M118.553,5.047a4.928,4.928,0,0,1-4.938,5.029A4.982,4.982,0,0,1,108.8,5.029,4.973,4.973,0,0,1,113.634,0a4.922,4.922,0,0,1,4.919,5.047" transform="translate(-82.687 0)" fill="#fff"/>
      </g>
    </g>
  </g>
</svg>
