<svg xmlns="http://www.w3.org/2000/svg" xmlns:xlink="http://www.w3.org/1999/xlink" width="238.719" height="74.164" viewBox="0 0 238.719 74.164">
  <defs>
    <clipPath id="clip-path">
      <path id="합치기_30" data-name="합치기 30" d="M20842.971,17988.059c-.945-.031-1.895,0-2.912,0-.025-.51-.053-.893-.057-1.281q0-10.321,0-20.65c0-1.982.834-2.795,2.842-2.8,1.547,0,3.1,0,4.795,0v8.57l.283.111c.314-.414.645-.824.949-1.248,1.385-1.895,2.754-3.8,4.139-5.691a4.046,4.046,0,0,1,3.467-1.752q21.22.023,42.443.01c.311,0,.625.031,1.055.053,0,1.516.068,2.975-.025,4.428-.059,1-1.055,1.668-2.271,1.678-2.025.016-4.049.006-6.242.006v1.373q0,7.1,0,14.205c-.006,2.244-.766,2.99-3.021,2.99-1.506,0-3.01,0-4.662,0v-18.5h-8.451v1.328q0,7.1,0,14.2c0,2.2-.734,2.922-2.953,2.928h-5.156v-18.562c-2.6,0-5.025-.027-7.449.031a1.667,1.667,0,0,0-1.006.682c-1.328,1.637-2.613,3.3-3.961,5.025l9.887,12.75c-.439.047-.729.105-1.021.105h-3.006c-1.668,0-3.336,0-5,.021a1.619,1.619,0,0,1-1.559-.814c-1.783-2.633-3.629-5.223-5.459-7.824-.217-.311-.479-.594-.93-1.145,0,1.914-.047,3.525.006,5.131.127,3.93-.279,4.664-3.566,4.664C20843.77,17988.082,20843.387,17988.072,20842.971,17988.059Zm27.957-26.98a5.043,5.043,0,0,1,.02-10.076,5.04,5.04,0,0,1,.037,10.076Z" transform="translate(-20730 -17876.508)"/>
    </clipPath>
    <clipPath id="clip-path-2">
      <rect id="사각형_444" data-name="사각형 444" width="60" height="37.083" fill="none"/>
    </clipPath>
  </defs>
  <g id="그룹_15206" data-name="그룹 15206" transform="translate(21982.719 24062.082)">
    <g id="그룹_15205" data-name="그룹 15205" transform="translate(-22092.719 -24089)">
      <g id="로고컬러" transform="translate(0 -10.494)" clip-path="url(#clip-path)">
        <rect id="사각형_655" data-name="사각형 655" width="13" height="13" transform="translate(135 73)" fill="#f8931f"/>
        <rect id="사각형_656" data-name="사각형 656" width="29" height="28" transform="translate(145 86)" fill="#5b56a6"/>
        <rect id="사각형_657" data-name="사각형 657" width="31" height="29" transform="translate(105 86)" fill="#5b56a6"/>
        <rect id="사각형_658" data-name="사각형 658" width="10" height="31" transform="translate(135.3 86)" fill="#f8931f"/>
        <path id="다각형_3" data-name="다각형 3" d="M6,0l6,10H0Z" transform="translate(129.458 84.496) rotate(5)" fill="#f8931f"/>
      </g>
      <path id="패스_15313" data-name="패스 15313" d="M18.586-19.009H3.151v2.486H15.469a26.451,26.451,0,0,1-.475,5.179H.665v2.495H9.219v3.185H2.7V-3.22H15.469V2.253h3.125V-5.663h-6.25V-8.848h8.641v-2.495H18.128a29.231,29.231,0,0,0,.458-5.913ZM39.8-19.984H36.688V2.2H39.8V-8.891h3.142v-2.572H39.8ZM22.039-4.023,23.791-1.64c7.467-3.669,10.065-9.418,10.083-16.065H23.291v2.547H30.7C30.11-10.2,27.288-6.664,22.039-4.023ZM64.166-9.211H55.576v-1.977h6.405v-2.5H49.465v-2.935h12.3v-2.452H46.348v7.89h6.1v1.977H43.9v2.478H64.166ZM46.141-2.745H58.676V2.314h3.073V-5.2H46.141ZM73.9-16.954v-1.865H70.761v2.011A7.423,7.423,0,0,1,65.3-9.5L66.954-7.01A8.826,8.826,0,0,0,72.4-12.042a8.16,8.16,0,0,0,4.938,4.351L79-10.126A6.784,6.784,0,0,1,73.9-16.954Zm-4.895,14.9c-.009,2.745,2.9,4.308,7.631,4.3,4.748.009,7.648-1.554,7.657-4.3-.009-2.728-2.909-4.325-7.657-4.325C71.909-6.379,69-4.782,69.009-2.055Zm3.1,0C72.1-3.323,73.7-3.962,76.64-3.962s4.558.639,4.567,1.908C81.2-.82,79.592-.173,76.64-.181,73.7-.173,72.1-.82,72.108-2.055Zm4.851-11.3h4.169v6.405h3.108V-19.984H81.129V-15.9H76.959Zm28.893-6.63h-3.108v5.421h-3.47v2.538h3.47v5.249h3.108ZM86.982-9.237,88.6-6.768a8.814,8.814,0,0,0,5.378-4.981,8.467,8.467,0,0,0,5.11,4.4L100.621-9.8a6.874,6.874,0,0,1-5.11-6.328h4.428v-2.5H87.888v2.5h4.454A7.4,7.4,0,0,1,86.982-9.237ZM90.625-2c-.009,2.693,2.9,4.273,7.631,4.282C103,2.27,105.9.691,105.913-2,105.9-4.7,103-6.284,98.256-6.284,93.525-6.284,90.616-4.7,90.625-2Zm3.1,0c-.009-1.278,1.588-1.916,4.532-1.916s4.558.639,4.567,1.916c-.009,1.269-1.614,1.908-4.567,1.9C95.312-.095,93.715-.734,93.724-2Zm22.022-12.9v-.112h3.41v-2.434h-3.41v-2.3H112.8v2.3h-3.453v2.434H112.8v.112a6,6,0,0,1-4.066,5.732l1.424,2.3a7.223,7.223,0,0,0,4.169-3.919,7.028,7.028,0,0,0,4.092,3.557l1.407-2.339A5.513,5.513,0,0,1,115.746-14.9ZM112.474-2.918h12.258V2.253h3.1V-5.421H112.474Zm7.683-3.513H123.1V-11.87h1.778v5.508h2.952V-19.95h-2.952v5.577H123.1V-19.6h-2.944Zm29.29-13.553h-2.952V-3.341h2.952ZM130.085-8.589,131.8-6.233a8.169,8.169,0,0,0,4.075-4.454,7.418,7.418,0,0,0,3.712,3.928l1.718-2.4a6.708,6.708,0,0,1-3.945-6.431v-2.9H134.34v2.9A7.585,7.585,0,0,1,130.085-8.589Zm4.308,10.454h15.625V-.647H137.5V-5.3h-3.108Zm4.895-14.209h2.719V-4h2.944V-19.63h-2.944v4.748h-2.719Zm31.431-7.64h-3.082v7.864h-3.9v2.495h3.9V2.3h3.082ZM152.987-2.736h1.77a64.226,64.226,0,0,0,9.962-.613l-.311-2.495a54.178,54.178,0,0,1-8.3.57v-4.2h6.466v-2.443H156.1V-15.6h7.277v-2.512H152.987Z" transform="translate(178 98)" fill="#242424"/>
    </g>
    <g id="그룹_6814" data-name="그룹 6814" transform="translate(-22081.719 -24136.574)">
      <g id="그룹_446" data-name="그룹 446" transform="translate(99 74.492)">
        <g id="그룹_445" data-name="그룹 445" clip-path="url(#clip-path-2)">
          <path id="패스_136" data-name="패스 136" d="M27.185,76.012V57.451c-2.594,0-5.021-.028-7.445.031a1.69,1.69,0,0,0-1.01.682c-1.327,1.635-2.611,3.3-3.959,5.026l9.89,12.749c-.442.049-.731.108-1.022.109-2.67.007-5.34-.015-8.01.017a1.634,1.634,0,0,1-1.563-.812c-1.781-2.635-3.626-5.226-5.455-7.828-.218-.31-.478-.591-.931-1.144,0,1.918-.044,3.527.008,5.132.141,4.351-.375,4.787-4.719,4.644-.946-.031-1.894,0-2.911,0C.036,75.543,0,75.156,0,74.769Q0,64.445,0,54.121c0-1.981.832-2.8,2.843-2.8,1.548,0,3.1,0,4.794,0v8.57L7.922,60c.318-.416.643-.826.951-1.249,1.382-1.9,2.755-3.8,4.137-5.693a4.038,4.038,0,0,1,3.468-1.75q21.221.019,42.442.01c.311,0,.623.029,1.055.051,0,1.513.068,2.976-.024,4.428a2.061,2.061,0,0,1-2.273,1.678c-2.025.015-4.05,0-6.24,0v1.376q0,7.1,0,14.2c0,2.248-.764,2.989-3.022,2.992-1.506,0-3.011,0-4.663,0v-18.5H35.3v1.328q0,7.1,0,14.2c0,2.2-.737,2.918-2.957,2.924-1.664,0-3.328,0-5.157,0" transform="translate(0 -38.996)" fill="#fff"/>
          <path id="패스_137" data-name="패스 137" d="M118.553,5.047a4.928,4.928,0,0,1-4.938,5.029A4.982,4.982,0,0,1,108.8,5.029,4.973,4.973,0,0,1,113.634,0a4.922,4.922,0,0,1,4.919,5.047" transform="translate(-82.687 0)" fill="#fff"/>
        </g>
      </g>
      <path id="패스_15314" data-name="패스 15314" d="M18.586-19.009H3.151v2.486H15.469a26.451,26.451,0,0,1-.475,5.179H.665v2.495H9.219v3.185H2.7V-3.22H15.469V2.253h3.125V-5.663h-6.25V-8.848h8.641v-2.495H18.128a29.231,29.231,0,0,0,.458-5.913ZM39.8-19.984H36.688V2.2H39.8V-8.891h3.142v-2.572H39.8ZM22.039-4.023,23.791-1.64c7.467-3.669,10.065-9.418,10.083-16.065H23.291v2.547H30.7C30.11-10.2,27.288-6.664,22.039-4.023ZM64.166-9.211H55.576v-1.977h6.405v-2.5H49.465v-2.935h12.3v-2.452H46.348v7.89h6.1v1.977H43.9v2.478H64.166ZM46.141-2.745H58.676V2.314h3.073V-5.2H46.141ZM73.9-16.954v-1.865H70.761v2.011A7.423,7.423,0,0,1,65.3-9.5L66.954-7.01A8.826,8.826,0,0,0,72.4-12.042a8.16,8.16,0,0,0,4.938,4.351L79-10.126A6.784,6.784,0,0,1,73.9-16.954Zm-4.895,14.9c-.009,2.745,2.9,4.308,7.631,4.3,4.748.009,7.648-1.554,7.657-4.3-.009-2.728-2.909-4.325-7.657-4.325C71.909-6.379,69-4.782,69.009-2.055Zm3.1,0C72.1-3.323,73.7-3.962,76.64-3.962s4.558.639,4.567,1.908C81.2-.82,79.592-.173,76.64-.181,73.7-.173,72.1-.82,72.108-2.055Zm4.851-11.3h4.169v6.405h3.108V-19.984H81.129V-15.9H76.959Zm28.893-6.63h-3.108v5.421h-3.47v2.538h3.47v5.249h3.108ZM86.982-9.237,88.6-6.768a8.814,8.814,0,0,0,5.378-4.981,8.467,8.467,0,0,0,5.11,4.4L100.621-9.8a6.874,6.874,0,0,1-5.11-6.328h4.428v-2.5H87.888v2.5h4.454A7.4,7.4,0,0,1,86.982-9.237ZM90.625-2c-.009,2.693,2.9,4.273,7.631,4.282C103,2.27,105.9.691,105.913-2,105.9-4.7,103-6.284,98.256-6.284,93.525-6.284,90.616-4.7,90.625-2Zm3.1,0c-.009-1.278,1.588-1.916,4.532-1.916s4.558.639,4.567,1.916c-.009,1.269-1.614,1.908-4.567,1.9C95.312-.095,93.715-.734,93.724-2Zm22.022-12.9v-.112h3.41v-2.434h-3.41v-2.3H112.8v2.3h-3.453v2.434H112.8v.112a6,6,0,0,1-4.066,5.732l1.424,2.3a7.223,7.223,0,0,0,4.169-3.919,7.028,7.028,0,0,0,4.092,3.557l1.407-2.339A5.513,5.513,0,0,1,115.746-14.9ZM112.474-2.918h12.258V2.253h3.1V-5.421H112.474Zm7.683-3.513H123.1V-11.87h1.778v5.508h2.952V-19.95h-2.952v5.577H123.1V-19.6h-2.944Zm29.29-13.553h-2.952V-3.341h2.952ZM130.085-8.589,131.8-6.233a8.169,8.169,0,0,0,4.075-4.454,7.418,7.418,0,0,0,3.712,3.928l1.718-2.4a6.708,6.708,0,0,1-3.945-6.431v-2.9H134.34v2.9A7.585,7.585,0,0,1,130.085-8.589Zm4.308,10.454h15.625V-.647H137.5V-5.3h-3.108Zm4.895-14.209h2.719V-4h2.944V-19.63h-2.944v4.748h-2.719Zm31.431-7.64h-3.082v7.864h-3.9v2.495h3.9V2.3h3.082ZM152.987-2.736h1.77a64.226,64.226,0,0,0,9.962-.613l-.311-2.495a54.178,54.178,0,0,1-8.3.57v-4.2h6.466v-2.443H156.1V-15.6h7.277v-2.512H152.987Z" transform="translate(167 108)" fill="#fff"/>
    </g>
  </g>
</svg>
